<svg width="303" height="321" viewBox="0 0 303 321" fill="none" xmlns="http://www.w3.org/2000/svg">
<path d="M213.5 9.625C213.5 7.2712 214.435 5.01381 216.099 3.34943C217.764 1.68504 220.021 0.75 222.375 0.75H293.375C295.729 0.75 297.986 1.68504 299.651 3.34943C301.315 5.01381 302.25 7.2712 302.25 9.625V98.375C302.25 100.729 301.315 102.986 299.651 104.651C297.986 106.315 295.729 107.25 293.375 107.25H266.75V311.375C266.75 313.729 265.815 315.986 264.151 317.651C262.486 319.315 260.229 320.25 257.875 320.25C255.521 320.25 253.264 319.315 251.599 317.651C249.935 315.986 249 313.729 249 311.375V107.25H222.375C220.021 107.25 217.764 106.315 216.099 104.651C214.435 102.986 213.5 100.729 213.5 98.375V9.625ZM195.75 36.25H73.985C63.7242 36.248 53.7798 39.8019 45.8444 46.3069C37.909 52.8118 32.4731 61.8657 30.462 71.9275L26.9475 89.5H13.8125C10.2818 89.5 6.89572 90.9026 4.39914 93.3991C1.90256 95.8957 0.500001 99.2818 0.500001 102.812C0.500001 106.343 1.90256 109.729 4.39914 112.226C6.89572 114.722 10.2818 116.125 13.8125 116.125H21.6225L19.6523 126.065C14.1251 127.681 9.271 131.046 5.8179 135.654C2.3648 140.263 0.498879 145.866 0.500001 151.625V222.625C0.500001 229.686 3.30513 236.459 8.29828 241.452C13.2914 246.445 20.0636 249.25 27.125 249.25H231.25V125H37.9525L47.8748 75.4065C49.0807 69.373 52.3391 63.9434 57.0959 60.0409C61.8528 56.1383 67.8144 54.0037 73.9672 54H195.75V36.25ZM231.25 187.125C231.25 191.833 229.38 196.347 226.051 199.676C222.722 203.005 218.208 204.875 213.5 204.875C208.792 204.875 204.278 203.005 200.949 199.676C197.62 196.347 195.75 191.833 195.75 187.125C195.75 182.417 197.62 177.903 200.949 174.574C204.278 171.245 208.792 169.375 213.5 169.375C218.208 169.375 222.722 171.245 226.051 174.574C229.38 177.903 231.25 182.417 231.25 187.125ZM231.25 302.5C226.542 302.5 222.028 300.63 218.699 297.301C215.37 293.972 213.5 289.458 213.5 284.75V267H231.25V302.5ZM71.5 284.75V267H36V284.75C36 289.458 37.8701 293.972 41.1989 297.301C44.5276 300.63 49.0424 302.5 53.75 302.5C58.4576 302.5 62.9724 300.63 66.3011 297.301C69.6299 293.972 71.5 289.458 71.5 284.75ZM53.75 187.125C53.75 182.417 55.6201 177.903 58.9489 174.574C62.2776 171.245 66.7924 169.375 71.5 169.375C76.2076 169.375 80.7224 171.245 84.0511 174.574C87.3799 177.903 89.25 182.417 89.25 187.125C89.25 191.833 87.3799 196.347 84.0511 199.676C80.7224 203.005 76.2076 204.875 71.5 204.875C66.7924 204.875 62.2776 203.005 58.9489 199.676C55.6201 196.347 53.75 191.833 53.75 187.125Z" fill="url(#paint0_linear_1_171)"/>
<defs>
<linearGradient id="paint0_linear_1_171" x1="151.375" y1="0.75" x2="151.375" y2="320.25" gradientUnits="userSpaceOnUse">
<stop stop-color="#FE8F4E"/>
<stop offset="1" stop-color="#C03535"/>
</linearGradient>
</defs>
</svg>
