<svg width="60" height="60" viewBox="0 0 60 60" fill="none" xmlns="http://www.w3.org/2000/svg">
<path d="M7.5 30C7.5 32.9547 8.08198 35.8806 9.21271 38.6104C10.3434 41.3402 12.0008 43.8206 14.0901 45.9099C16.1794 47.9992 18.6598 49.6566 21.3896 50.7873C24.1194 51.918 27.0453 52.5 30 52.5C32.9547 52.5 35.8806 51.918 38.6104 50.7873C41.3402 49.6566 43.8206 47.9992 45.9099 45.9099C47.9992 43.8206 49.6566 41.3402 50.7873 38.6104C51.918 35.8806 52.5 32.9547 52.5 30C52.5 27.0453 51.918 24.1194 50.7873 21.3896C49.6566 18.6598 47.9992 16.1794 45.9099 14.0901C43.8206 12.0008 41.3402 10.3434 38.6104 9.21271C35.8806 8.08198 32.9547 7.5 30 7.5C27.0453 7.5 24.1194 8.08198 21.3896 9.21271C18.6598 10.3434 16.1794 12.0008 14.0901 14.0901C12.0008 16.1794 10.3434 18.6598 9.21271 21.3896C8.08198 24.1194 7.5 27.0453 7.5 30Z" stroke="#F6F5F4" stroke-width="5" stroke-linecap="round" stroke-linejoin="round"/>
<path d="M34.6675 24.375C34.0525 23.175 32.8975 22.4525 31.6675 22.5H28.3325C26.4925 22.5 25 24.175 25 26.25C25 28.3175 26.4925 29.9975 28.3325 29.9975H31.6675C33.5075 29.9975 35 31.675 35 33.7475C35 35.8175 33.5075 37.495 31.6675 37.495H28.3325C27.1025 37.5425 25.9475 36.82 25.3325 35.62M30 17.5V22.5M30 37.5V42.5M15 15L18.75 18.75M41.25 41.25L45 45" stroke="#F6F5F4" stroke-width="2.66667" stroke-linecap="round" stroke-linejoin="round"/>
</svg>
