<svg width="52" height="48" viewBox="0 0 52 48" fill="none" xmlns="http://www.w3.org/2000/svg">
<path d="M32.625 0.625C31.6304 0.625 30.6766 1.02009 29.9734 1.72335C29.2701 2.42661 28.875 3.38044 28.875 4.375V11.875C28.875 12.8696 29.2701 13.8234 29.9734 14.5266C30.6766 15.2299 31.6304 15.625 32.625 15.625V21.25L39.375 15.625H47.625C48.6196 15.625 49.5734 15.2299 50.2766 14.5266C50.9799 13.8234 51.375 12.8696 51.375 11.875V4.375C51.375 3.38044 50.9799 2.42661 50.2766 1.72335C49.5734 1.02009 48.6196 0.625 47.625 0.625H32.625ZM15.75 10C13.7609 10 11.8532 10.7902 10.4467 12.1967C9.04018 13.6032 8.25 15.5109 8.25 17.5C8.25 19.4891 9.04018 21.3968 10.4467 22.8033C11.8532 24.2098 13.7609 25 15.75 25C17.7391 25 19.6468 24.2098 21.0533 22.8033C22.4598 21.3968 23.25 19.4891 23.25 17.5C23.25 15.5109 22.4598 13.6032 21.0533 12.1967C19.6468 10.7902 17.7391 10 15.75 10ZM25.125 28.75H6.375C4.88316 28.75 3.45242 29.3426 2.39752 30.3975C1.34263 31.4524 0.75 32.8832 0.75 34.375C0.75 38.56 2.47125 41.9125 5.295 44.1812C8.07375 46.4125 11.8013 47.5 15.75 47.5C19.6987 47.5 23.4263 46.4125 26.205 44.1812C29.025 41.9125 30.75 38.56 30.75 34.375C30.75 32.8832 30.1574 31.4524 29.1025 30.3975C28.0476 29.3426 26.6168 28.75 25.125 28.75Z" fill="white"/>
</svg>
