<svg width="46" height="46" viewBox="0 0 46 46" fill="none" xmlns="http://www.w3.org/2000/svg">
<path d="M23 20.5C24.375 20.5 25.5525 20.01 26.5325 19.03C27.5125 18.05 28.0017 16.8733 28 15.5C28 14.125 27.51 12.9475 26.53 11.9675C25.55 10.9875 24.3733 10.4983 23 10.5C21.625 10.5 20.4475 10.99 19.4675 11.97C18.4875 12.95 17.9983 14.1267 18 15.5C18 16.875 18.49 18.0525 19.47 19.0325C20.45 20.0125 21.6267 20.5017 23 20.5ZM10.5 45.5V40.5H20.5V32.75C18.4583 32.2917 16.635 31.4267 15.03 30.155C13.425 28.8833 12.2483 27.29 11.5 25.375C8.375 25 5.76 23.6358 3.655 21.2825C1.55 18.9292 0.498335 16.1683 0.500002 13V5.5H10.5V0.5H35.5V5.5H45.5V13C45.5 16.1667 44.4475 18.9275 42.3425 21.2825C40.2375 23.6375 37.6233 25.0017 34.5 25.375C33.75 27.2917 32.5725 28.8858 30.9675 30.1575C29.3625 31.4292 27.54 32.2933 25.5 32.75V40.5H35.5V45.5H10.5ZM10.5 20V10.5H5.5V13C5.5 14.5833 5.95834 16.0108 6.875 17.2825C7.79167 18.5542 9 19.46 10.5 20ZM35.5 20C37 19.4583 38.2083 18.5517 39.125 17.28C40.0417 16.0083 40.5 14.5817 40.5 13V10.5H35.5V20Z" fill="white"/>
</svg>
