<svg width="48" height="48" viewBox="0 0 48 48" fill="none" xmlns="http://www.w3.org/2000/svg">
<path d="M9.02807 4.6364e-06H14.2483L9.0131 14.397H0L6.79726 1.32453C7.00469 0.926464 7.32321 0.591752 7.71719 0.357834C8.11116 0.123916 8.56505 1.95773e-05 9.02807 4.6364e-06ZM0.179663 19.196L15.2215 41.6888L8.87835 19.196H0.179663ZM14.0487 19.196L21.6843 46.2863C21.8197 46.7775 22.1201 47.212 22.539 47.522C22.9578 47.8319 23.4715 48 24 48C24.5285 48 25.0422 47.8319 25.461 47.522C25.8799 47.212 26.1803 46.7775 26.3157 46.2863L33.9713 19.196H14.0487ZM39.1416 19.196L32.7835 41.6792L47.8203 19.196H39.1366H39.1416ZM48 14.397H39.0019L33.7617 4.6364e-06H38.9719C39.4358 -0.000872081 39.8907 0.122604 40.2857 0.356572C40.6806 0.590539 40.9999 0.925734 41.2077 1.32453L48 14.397ZM33.7168 14.397H14.3032L19.5334 4.6364e-06H28.4666L33.7168 14.397Z" fill="white"/>
</svg>
