<svg width="159" height="159" viewBox="0 0 159 159" fill="none" xmlns="http://www.w3.org/2000/svg">
<path fill-rule="evenodd" clip-rule="evenodd" d="M79.5 0C116.976 0 135.714 0 147.353 11.6388C151.36 15.6456 153.992 20.4951 155.717 26.6564L26.6564 155.717C20.4951 153.992 15.6456 151.36 11.6388 147.353C0 135.722 0 116.976 0 79.5C0 42.0237 0 23.2856 11.6388 11.6388C23.2935 0 42.0237 0 79.5 0ZM27.825 53.7182C27.825 67.9089 36.7052 84.4688 50.562 90.3915C53.7897 91.7669 57.5103 91.7669 60.738 90.3915C74.5949 84.4688 83.475 67.9089 83.475 53.7182C83.475 39.4161 71.0174 27.825 55.65 27.825C40.2827 27.825 27.825 39.4161 27.825 53.7182Z" fill="url(#paint0_linear_1_137)"/>
<path d="M67.575 55.6501C67.575 58.8128 66.3186 61.8459 64.0823 64.0823C61.8459 66.3187 58.8127 67.5751 55.65 67.5751C52.4873 67.5751 49.4541 66.3187 47.2178 64.0823C44.9814 61.8459 43.725 58.8128 43.725 55.6501C43.725 52.4874 44.9814 49.4542 47.2178 47.2178C49.4541 44.9814 52.4873 43.7251 55.65 43.7251C58.8127 43.7251 61.8459 44.9814 64.0823 47.2178C66.3186 49.4542 67.575 52.4874 67.575 55.6501Z" fill="url(#paint1_linear_1_137)"/>
<path opacity="0.5" d="M158.126 41.1174C159 51.1423 159 63.6477 159 79.5C159 112.365 159 130.817 151.153 142.71L103.827 95.4L158.11 41.1174H158.126ZM142.718 151.145L95.408 103.835L41.1095 158.118C51.1424 159 63.6477 159 79.508 159C112.373 159 130.825 159 142.718 151.145Z" fill="url(#paint2_linear_1_137)"/>
<defs>
<linearGradient id="paint0_linear_1_137" x1="77.8583" y1="0" x2="77.8583" y2="155.717" gradientUnits="userSpaceOnUse">
<stop stop-color="#FE8F4E"/>
<stop offset="1" stop-color="#C03535"/>
</linearGradient>
<linearGradient id="paint1_linear_1_137" x1="55.65" y1="43.7251" x2="55.65" y2="67.5751" gradientUnits="userSpaceOnUse">
<stop stop-color="#FE8F4E"/>
<stop offset="1" stop-color="#C03535"/>
</linearGradient>
<linearGradient id="paint2_linear_1_137" x1="100.055" y1="41.1174" x2="100.055" y2="159" gradientUnits="userSpaceOnUse">
<stop stop-color="#FE8F4E"/>
<stop offset="1" stop-color="#C03535"/>
</linearGradient>
</defs>
</svg>
