<svg width="143" height="159" viewBox="0 0 143 159" fill="none" xmlns="http://www.w3.org/2000/svg">
<path d="M120.285 125.624C123.53 120.495 125.374 114.325 125.374 107.784C125.374 89.2006 110.624 74.3338 92.1867 74.3338C73.7494 74.3338 58.9995 89.2006 58.9995 107.784C58.9995 126.367 73.7494 141.234 92.1867 141.234C98.6029 141.234 104.65 139.376 109.739 136.18L132.749 159L143 148.668L120.285 125.624ZM92.1867 126.367C87.2968 126.367 82.6072 124.41 79.1495 120.924C75.6919 117.439 73.7494 112.713 73.7494 107.784C73.7494 102.855 75.6919 98.1286 79.1495 94.6435C82.6072 91.1585 87.2968 89.2006 92.1867 89.2006C97.0766 89.2006 101.766 91.1585 105.224 94.6435C108.682 98.1286 110.624 102.855 110.624 107.784C110.624 112.713 108.682 117.439 105.224 120.924C101.766 124.41 97.0766 126.367 92.1867 126.367ZM48.6008 127.854L0 89.7209L11.9474 80.3548L44.2496 105.703V107.784C44.2496 114.92 45.8721 121.759 48.6008 127.854ZM12.0211 61.4741L0 52.0337L66.3744 0L132.749 52.0337L120.654 61.4741L115.418 65.5624C108.559 61.6971 100.594 59.467 92.1867 59.467C72.2006 59.467 55.017 71.9551 47.9371 89.5722L12.0211 61.4741Z" fill="url(#paint0_linear_1_135)"/>
<defs>
<linearGradient id="paint0_linear_1_135" x1="71.5" y1="0" x2="71.5" y2="159" gradientUnits="userSpaceOnUse">
<stop stop-color="#FE8F4E"/>
<stop offset="1" stop-color="#C03535"/>
</linearGradient>
</defs>
</svg>
