<svg width="156" height="159" viewBox="0 0 156 159" fill="none" xmlns="http://www.w3.org/2000/svg">
<path d="M41.7831 34.0715H100.845C102.225 40.9655 106.069 47.0914 111.629 51.2616C117.19 55.4318 124.072 57.3492 130.941 56.642C137.81 55.9348 144.177 52.6534 148.807 47.434C153.437 42.2146 156 35.4291 156 28.3929C156 21.3567 153.437 14.5712 148.807 9.35179C144.177 4.13241 137.81 0.85104 130.941 0.143841C124.072 -0.563358 117.19 1.354 111.629 5.52419C106.069 9.69438 102.225 15.8203 100.845 22.7143H41.7831C33.6555 22.7143 25.8608 26.0049 20.1137 31.862C14.3667 37.7192 11.138 45.6632 11.138 53.9465C11.138 62.2297 14.3667 70.1737 20.1137 76.0309C25.8608 81.8881 33.6555 85.1786 41.7831 85.1786H103.073C108.245 85.1786 113.206 87.2725 116.863 90.9998C120.52 94.7271 122.575 99.7824 122.575 105.054C122.575 110.325 120.52 115.38 116.863 119.107C113.206 122.835 108.245 124.929 103.073 124.929H55.1555C53.7747 118.035 49.9314 111.909 44.3707 107.738C38.81 103.568 31.928 101.651 25.0591 102.358C18.1901 103.065 11.8235 106.347 7.19348 111.566C2.56349 116.785 0 123.571 0 130.607C0 137.643 2.56349 144.429 7.19348 149.648C11.8235 154.868 18.1901 158.149 25.0591 158.856C31.928 159.563 38.81 157.646 44.3707 153.476C49.9314 149.306 53.7747 143.18 55.1555 136.286H103.073C111.201 136.286 118.996 132.995 124.743 127.138C130.49 121.281 133.718 113.337 133.718 105.054C133.718 96.7703 130.49 88.8263 124.743 82.9691C118.996 77.112 111.201 73.8214 103.073 73.8214H41.7831C36.611 73.8214 31.6507 71.7275 27.9935 68.0002C24.3363 64.2729 22.2817 59.2176 22.2817 53.9465C22.2817 48.6753 24.3363 43.62 27.9935 39.8927C31.6507 36.1654 36.611 34.0715 41.7831 34.0715ZM128.147 11.3572C131.453 11.3572 134.684 12.3563 137.433 14.2282C140.182 16.1001 142.324 18.7608 143.59 21.8736C144.855 24.9865 145.186 28.4118 144.541 31.7164C143.896 35.021 142.304 38.0565 139.966 40.439C137.628 42.8214 134.65 44.4439 131.408 45.1013C128.165 45.7586 124.804 45.4212 121.75 44.1318C118.695 42.8424 116.085 40.6589 114.248 37.8574C112.411 35.0559 111.431 31.7622 111.431 28.3929C111.431 23.8748 113.192 19.5417 116.327 16.3468C119.462 13.152 123.713 11.3572 128.147 11.3572ZM27.8535 147.643C24.5475 147.643 21.3157 146.644 18.5669 144.772C15.818 142.9 13.6755 140.239 12.4104 137.126C11.1452 134.014 10.8142 130.588 11.4592 127.284C12.1041 123.979 13.6961 120.944 16.0338 118.561C18.3715 116.179 21.35 114.556 24.5925 113.899C27.8349 113.241 31.1959 113.579 34.2502 114.868C37.3046 116.158 39.9152 118.341 41.7519 121.143C43.5886 123.944 44.569 127.238 44.569 130.607C44.569 135.125 42.8079 139.458 39.6731 142.653C36.5384 145.848 32.2867 147.643 27.8535 147.643Z" fill="url(#paint0_linear_1_173)"/>
<defs>
<linearGradient id="paint0_linear_1_173" x1="78" y1="0" x2="78" y2="159" gradientUnits="userSpaceOnUse">
<stop stop-color="#FE8F4E"/>
<stop offset="1" stop-color="#C03535"/>
</linearGradient>
</defs>
</svg>
