<svg width="329" height="99" viewBox="0 0 329 99" fill="none" xmlns="http://www.w3.org/2000/svg">
<rect width="329" height="98.1471" rx="10" fill="white"/>
<g clip-path="url(#clip0_7_368)">
<path d="M303.054 44.5629L297.739 58.0873H297.58L292.035 44.5629H287.022L295.33 63.4687L290.583 73.9842H295.454L308.263 44.5629H303.054ZM265.497 33.3399H260.856V64.531H265.497V33.3399ZM248.03 33.3399H236.869V64.531H241.546V52.7238H248.047C249.358 52.7686 250.664 52.5527 251.891 52.0888C253.118 51.6249 254.24 50.9221 255.193 50.0212C256.145 49.1203 256.909 48.0394 257.44 46.841C257.972 45.6427 258.259 44.3508 258.287 43.0405C258.259 41.7279 257.971 40.4337 257.439 39.2332C256.907 38.0327 256.142 36.9497 255.188 36.0472C254.233 35.1446 253.109 34.4405 251.88 33.9756C250.652 33.5108 249.343 33.2951 248.03 33.3399ZM248.153 48.3687H241.546V37.7472H248.171C249.581 37.7472 250.932 38.3067 251.929 39.3026C252.926 40.2986 253.486 41.6494 253.486 43.0579C253.486 44.4664 252.926 45.8172 251.929 46.8132C250.932 47.8091 249.581 48.3687 248.171 48.3687H248.154H248.153ZM276.942 43.8901C275.241 43.7925 273.55 44.1927 272.074 45.0417C270.598 45.8906 269.402 47.1514 268.633 48.6694L272.778 50.4399C273.189 49.6893 273.81 49.075 274.566 48.6724C275.321 48.2698 276.178 48.0966 277.03 48.1739C277.616 48.1154 278.207 48.1731 278.77 48.3436C279.333 48.5141 279.856 48.7941 280.311 49.1676C280.765 49.541 281.141 50.0004 281.417 50.5195C281.693 51.0386 281.864 51.6071 281.919 52.1924V52.5111C280.434 51.7083 278.772 51.2884 277.083 51.2895C272.637 51.2895 268.101 53.7327 268.101 58.3707C268.101 62.5484 271.733 65.2392 275.843 65.2392C277.013 65.3133 278.18 65.0693 279.222 64.5332C280.264 63.997 281.141 63.1888 281.76 62.1944H281.937V64.6017H286.473V52.5998C286.473 47.0589 282.327 43.9788 276.976 43.9788L276.942 43.8901ZM276.392 60.9907C274.869 60.9907 272.743 60.2118 272.743 58.3353C272.743 55.928 275.382 55.0077 277.686 55.0077C279.171 54.9673 280.64 55.3281 281.937 56.0514C281.766 57.4051 281.11 58.6512 280.091 59.5592C279.072 60.4671 277.758 60.9757 276.392 60.9907ZM108.412 65.2038C99.2384 65.2341 91.7454 57.8886 91.5999 48.7227C91.7459 39.5569 99.2384 32.2114 108.412 32.2417C110.513 32.2068 112.599 32.5913 114.549 33.3725C116.499 34.1538 118.273 35.3162 119.768 36.7915L116.561 39.9603C114.386 37.8308 111.457 36.6471 108.412 36.6675C101.789 36.6675 96.4188 42.0332 96.4188 48.652C96.4188 55.2708 101.789 60.6366 108.412 60.6366C109.96 60.7 111.504 60.4381 112.945 59.8678C114.385 59.2975 115.69 58.4315 116.774 57.3258C118.216 55.7726 119.085 53.7745 119.237 51.6615H108.412V47.289H123.648C123.814 48.2177 123.891 49.1599 123.878 50.1037C124.031 54.0225 122.623 57.842 119.963 60.7253C118.461 62.2412 116.656 63.4235 114.665 64.1951C112.675 64.9668 110.544 65.3108 108.412 65.2038ZM147.44 54.5823C147.499 55.9986 147.27 57.4121 146.768 58.7378C146.266 60.0636 145.501 61.2743 144.519 62.2971C143.537 63.3199 142.358 64.1337 141.053 64.6897C139.748 65.2456 138.344 65.5322 136.926 65.5322C135.507 65.5322 134.103 65.2456 132.798 64.6897C131.493 64.1337 130.314 63.3199 129.332 62.2971C128.35 61.2743 127.585 60.0636 127.083 58.7378C126.581 57.4121 126.353 55.9986 126.411 54.5823C126.353 53.166 126.581 51.7525 127.083 50.4268C127.585 49.101 128.35 47.8903 129.332 46.8675C130.314 45.8447 131.493 45.0309 132.798 44.4749C134.103 43.919 135.507 43.6324 136.926 43.6324C138.344 43.6324 139.748 43.919 141.053 44.4749C142.358 45.0309 143.537 45.8447 144.519 46.8675C145.501 47.8903 146.266 49.101 146.768 50.4268C147.27 51.7525 147.499 53.166 147.44 54.5823ZM142.834 54.5823C142.912 53.7601 142.817 52.9307 142.555 52.1473C142.294 51.3638 141.872 50.6436 141.315 50.0327C140.759 49.4218 140.081 48.9338 139.325 48.5998C138.57 48.2659 137.752 48.0934 136.926 48.0934C136.099 48.0934 135.282 48.2659 134.526 48.5998C133.77 48.9338 133.092 49.4218 132.536 50.0327C131.98 50.6436 131.557 51.3638 131.296 52.1473C131.034 52.9307 130.939 53.7601 131.017 54.5823C130.939 55.4045 131.034 56.2339 131.296 57.0174C131.557 57.8008 131.98 58.521 132.536 59.1319C133.092 59.7428 133.77 60.2308 134.526 60.5648C135.282 60.8987 136.099 61.0713 136.926 61.0713C137.752 61.0713 138.57 60.8987 139.325 60.5648C140.081 60.2308 140.759 59.7428 141.315 59.1319C141.872 58.521 142.294 57.8008 142.555 57.0174C142.817 56.2339 142.912 55.4045 142.834 54.5823ZM171.002 54.5823C171.002 60.3801 166.298 65.0798 160.497 65.0798C154.694 65.0798 149.991 60.3801 149.991 54.5823C149.991 48.7845 154.694 44.0848 160.497 44.0848C166.298 44.0848 171.002 48.7845 171.002 54.5823ZM166.414 54.5823C166.492 53.7601 166.397 52.9307 166.135 52.1473C165.874 51.3638 165.451 50.6436 164.895 50.0327C164.339 49.4218 163.661 48.9338 162.905 48.5998C162.149 48.2659 161.332 48.0934 160.506 48.0934C159.679 48.0934 158.862 48.2659 158.106 48.5998C157.35 48.9338 156.672 49.4218 156.116 50.0327C155.56 50.6436 155.137 51.3638 154.876 52.1473C154.614 52.9307 154.519 53.7601 154.597 54.5823C154.519 55.4047 154.613 56.2344 154.875 57.0182C155.136 57.802 155.558 58.5226 156.115 59.1338C156.671 59.745 157.349 60.2333 158.105 60.5674C158.861 60.9016 159.678 61.0742 160.505 61.0742C161.332 61.0742 162.15 60.9016 162.906 60.5674C163.662 60.2333 164.34 59.745 164.896 59.1338C165.452 58.5226 165.874 57.802 166.136 57.0182C166.397 56.2344 166.492 55.4047 166.414 54.5823ZM193.997 44.6162V63.6814C193.997 71.5056 189.337 74.7277 183.846 74.7277C181.833 74.7446 179.86 74.1651 178.176 73.0624C176.492 71.9597 175.173 70.3832 174.385 68.532L178.407 66.7616C178.824 67.8424 179.55 68.7765 180.496 69.4471C181.441 70.1178 182.563 70.4953 183.722 70.5325C187.265 70.5325 189.426 68.3553 189.426 64.3009V62.7785H189.249C188.554 63.5534 187.701 64.1707 186.748 64.589C185.795 65.0073 184.763 65.2169 183.722 65.2038C177.851 65.2038 173.092 60.4486 173.092 54.5823C173.092 48.716 177.851 43.9608 183.722 43.9608C184.77 43.9377 185.811 44.1372 186.776 44.5461C187.741 44.955 188.608 45.564 189.32 46.3328H189.497V44.5629H193.997V44.6162ZM189.869 54.6356C189.934 53.8344 189.837 53.0283 189.585 52.2652C189.332 51.502 188.929 50.7974 188.398 50.1931C187.868 49.5887 187.221 49.0971 186.497 48.7472C185.773 48.3974 184.985 48.1965 184.182 48.1565C183.363 48.1836 182.557 48.3736 181.813 48.7155C181.068 49.0573 180.399 49.5441 179.845 50.1474C179.29 50.7507 178.862 51.4583 178.585 52.229C178.307 52.9996 178.186 53.8178 178.229 54.6356C178.191 55.4479 178.316 56.2596 178.596 57.0231C178.877 57.7865 179.306 58.4864 179.861 59.0816C180.415 59.6769 181.083 60.1554 181.825 60.4893C182.567 60.8232 183.368 61.0057 184.182 61.026C184.981 60.9952 185.765 60.8034 186.487 60.4623C187.21 60.1212 187.856 59.6378 188.387 59.041C188.919 58.4442 189.324 57.7464 189.578 56.9894C189.833 56.2324 189.932 55.4318 189.869 54.6356ZM202.199 33.3746V64.549H197.522V33.3746H202.199ZM220.623 58.0878L224.273 60.4952C223.298 61.948 221.98 63.1379 220.435 63.9592C218.89 64.7805 217.165 65.2079 215.415 65.2033C214.023 65.2231 212.641 64.9605 211.353 64.4313C210.065 63.9021 208.898 63.1173 207.923 62.1244C206.947 61.1315 206.184 59.9511 205.678 58.6548C205.172 57.3584 204.935 55.973 204.98 54.5823C204.551 49.6329 207.906 45.1493 212.78 44.1617C217.652 43.1741 222.49 45.9972 224.025 50.7233L224.503 51.9449L210.331 57.8039C210.772 58.7958 211.501 59.6328 212.423 60.2071C213.345 60.7814 214.418 61.0666 215.503 61.026C216.536 61.0098 217.548 60.7317 218.443 60.2176C219.339 59.7036 220.089 58.9711 220.623 58.0878ZM209.445 54.2636L218.976 50.3338C218.607 49.6122 218.034 49.0146 217.329 48.615C216.624 48.2153 215.816 48.0311 215.007 48.0853C214.234 48.1191 213.475 48.3067 212.775 48.6369C212.074 48.9671 211.447 49.4334 210.929 50.0086C210.411 50.5838 210.013 51.2563 209.759 51.9868C209.504 52.7174 209.397 53.4914 209.445 54.2636Z" fill="#5F6368"/>
<path d="M44.7243 47.7847L20.9506 72.6741C21.2175 73.6195 21.6972 74.4915 22.3531 75.2233C23.0089 75.9552 23.8236 76.5275 24.7347 76.8965C25.6458 77.2655 26.6293 77.4215 27.61 77.3524C28.5906 77.2834 29.5425 76.9913 30.3929 76.4983L57.1435 61.2742L44.7243 47.7847Z" fill="#EA4335"/>
<path d="M68.7647 43.5536L57.1962 36.9331L44.175 48.3515L57.249 61.2383L68.7293 54.6886C69.7463 54.1565 70.5983 53.3564 71.1927 52.3749C71.7871 51.3935 72.1013 50.2682 72.1013 49.1211C72.1013 47.9739 71.7871 46.8486 71.1927 45.8672C70.5983 44.8858 69.7463 44.0857 68.7293 43.5536H68.7647Z" fill="#FBBC04"/>
<path d="M20.9501 25.4439C20.8063 25.9749 20.7347 26.5229 20.7372 27.0729V71.0455C20.7389 71.5954 20.8102 72.1425 20.9501 72.6739L45.5391 48.4226L20.9506 25.4434L20.9501 25.4439Z" fill="#4285F4"/>
<path d="M44.9017 49.059L57.1962 36.933L30.4805 21.6388C29.4754 21.0504 28.3322 20.7386 27.1672 20.7354C25.7608 20.7329 24.3922 21.19 23.2699 22.0369C22.1476 22.8839 21.3331 24.0742 20.9506 25.4266L44.9017 49.059Z" fill="#34A853"/>
</g>
<defs>
<clipPath id="clip0_7_368">
<rect width="287.529" height="56.6765" fill="white" transform="translate(20.7353 20.7354)"/>
</clipPath>
</defs>
</svg>
